<svg xmlns="http://www.w3.org/2000/svg" xmlns:xlink="http://www.w3.org/1999/xlink" x="0" y="0" version="1.1" viewBox="0 0 115.956 364.2" xml:space="preserve" style="enable-background:new 0 0 115.956 364.2"><style type="text/css">.st0{fill:#d9e0dc}.st1{display:none}.st2{display:inline;opacity:.4;enable-background:new}.st2,.st3{fill:#aaada1}.st4{fill:#6d6e72}.st5{fill:none;stroke:#fff;stroke-miterlimit:10}</style><switch><g><g id="panel"><g><g id="cut"><g><path d="M0,364.355L0,0.181h115.776v364.777L0,364.355z M21.388,352.058c-2.322,0-4.212,1.89-4.212,4.212 s1.89,4.212,4.212,4.212s4.212-1.89,4.212-4.212S23.71,352.058,21.388,352.058z M18.288,301.357 c-4.804,0-8.712,3.908-8.712,8.712c0,4.804,3.908,8.712,8.712,8.712S27,314.873,27,310.069 C27,305.265,23.092,301.357,18.288,301.357z M97.488,285.157c-4.804,0-8.712,3.908-8.712,8.712 c0,4.804,3.908,8.712,8.712,8.712s8.712-3.908,8.712-8.712C106.2,289.065,102.292,285.157,97.488,285.157z M19.188,277.058 c-2.322,0-4.212,1.89-4.212,4.212s1.89,4.212,4.212,4.212c2.323,0,4.212-1.89,4.212-4.212S21.511,277.058,19.188,277.058z M90.288,244.557c-5.355,0-9.712,4.356-9.712,9.712s4.357,9.712,9.712,9.712c5.355,0,9.712-4.356,9.712-9.712 S95.643,244.557,90.288,244.557z M34.488,235.557c-5.355,0-9.712,4.356-9.712,9.712s4.356,9.712,9.712,9.712 c5.355,0,9.712-4.356,9.712-9.712S39.843,235.557,34.488,235.557z M97.488,191.557c-4.804,0-8.712,3.908-8.712,8.712 s3.908,8.712,8.712,8.712s8.712-3.908,8.712-8.712S102.292,191.557,97.488,191.557z M57.888,191.557 c-4.804,0-8.712,3.908-8.712,8.712s3.908,8.712,8.712,8.712s8.712-3.908,8.712-8.712S62.692,191.557,57.888,191.557z M18.288,191.557c-4.804,0-8.712,3.908-8.712,8.712s3.908,8.712,8.712,8.712S27,205.073,27,200.269 S23.092,191.557,18.288,191.557z M18.288,157.357c-4.804,0-8.712,3.908-8.712,8.712s3.908,8.712,8.712,8.712 S27,170.873,27,166.069S23.092,157.357,18.288,157.357z M97.488,141.157c-4.804,0-8.712,3.908-8.712,8.712 s3.908,8.712,8.712,8.712s8.712-3.908,8.712-8.712S102.292,141.157,97.488,141.157z M18.288,133.057 c-2.322,0-4.212,1.89-4.212,4.212c0,2.322,1.89,4.212,4.212,4.212s4.212-1.89,4.212-4.212 C22.5,134.947,20.61,133.057,18.288,133.057z M90.288,100.557c-5.355,0-9.712,4.356-9.712,9.712s4.357,9.712,9.712,9.712 c5.355,0,9.712-4.356,9.712-9.712C100,104.913,95.643,100.557,90.288,100.557z M34.488,91.557 c-5.355,0-9.712,4.356-9.712,9.712s4.356,9.712,9.712,9.712c5.355,0,9.712-4.356,9.712-9.712 C44.2,95.913,39.843,91.557,34.488,91.557z M97.488,47.557c-4.804,0-8.712,3.908-8.712,8.712s3.908,8.712,8.712,8.712 s8.712-3.908,8.712-8.712C106.2,51.466,102.292,47.557,97.488,47.557z M57.888,47.557c-4.804,0-8.712,3.908-8.712,8.712 s3.908,8.712,8.712,8.712s8.712-3.908,8.712-8.712C66.599,51.466,62.692,47.557,57.888,47.557z M18.288,47.557 c-4.804,0-8.712,3.908-8.712,8.712s3.908,8.712,8.712,8.712S27,61.073,27,56.269C27,51.466,23.092,47.557,18.288,47.557z M21.388,4.757c-1.172,0-2.303,0.478-3.104,1.312c-0.758,0.789-1.151,1.814-1.108,2.889c0,2.334,1.89,4.224,4.212,4.224 S25.6,11.293,25.6,8.97S23.71,4.757,21.388,4.757z" class="st0"/></g></g></g></g><g id="markings"><g><g id="jnoibs_and_things" class="st1"><circle cx="-68.413" cy="222.17" r="10.8" class="st2"/><circle cx="41.387" cy="222.17" r="10.8" class="st2"/><circle cx="-23.413" cy="205.97" r="21.6" class="st2"/><circle cx="-68.413" cy="182.57" r="10.8" class="st2"/><circle cx="-68.413" cy="142.97" r="10.8" class="st2"/><circle cx="25.187" cy="142.97" r="10.8" class="st2"/><circle cx="75.342" cy="222.17" r="10.8" class="st2"/><ellipse cx="185.127" cy="222.172" class="st2" rx="10.799" ry="10.799" transform="matrix(0.9998 -0.0204 0.0204 0.9998 -4.4942 3.8232)"/><circle cx="75.342" cy="182.57" r="10.8" class="st2"/><circle cx="75.342" cy="142.97" r="10.8" class="st2"/><circle cx="169.187" cy="142.97" r="10.8" class="st2"/></g><g><path d="M104.68,121.065c-0.395-0.298-0.469-0.846-0.193-1.256c2.16-3.208,3.186-7.161,2.831-10.98 c-0.343-4.134-2.27-8.13-5.287-10.971c-3.03-2.895-7.125-4.594-11.239-4.665c-0.18-0.005-0.35-0.008-0.52-0.008 c-3.945,0-7.917,1.435-10.915,3.941c-0.113,0.161-0.338,0.451-0.855,1.049c-0.12,0.137-0.234,0.299-0.357,0.472 c-0.092,0.129-0.188,0.263-0.291,0.398c-0.234,0.307-0.481,0.646-0.705,1.041c-1.153,1.805-2.009,3.99-2.366,6.03 c-0.383,2.136-0.353,4.479,0.085,6.431c0.358,1.664,0.896,2.907,1.186,3.575l0.086,0.201c0.731,1.666,1.067,2.542,1.112,3.305 c0.062,0.827-0.251,1.51-0.932,2.02c-0.412,0.309-0.827,0.459-1.27,0.459c-0.347,0-0.705-0.097-1.064-0.288 c-0.691-0.378-1.704-1.277-2.65-3.435c-0.225-0.525-0.969-2.422-1.232-5.039c-0.276-2.559,0.045-5.502,0.884-8.069 c0.781-2.433,2.186-4.877,3.853-6.702c0.502-0.61,1.064-1.099,1.518-1.492c0.153-0.133,0.298-0.258,0.427-0.378 c0.619-0.453,1.022-0.725,1.276-0.869c3.342-2.847,7.79-4.479,12.217-4.479c0.153,0,0.307,0.002,0.461,0.006 c4.55,0.051,9.109,1.918,12.499,5.123c3.361,3.139,5.514,7.57,5.901,12.152c0.401,4.257-0.745,8.664-3.159,12.231 C105.689,121.293,105.091,121.375,104.68,121.065L104.68,121.065z" class="st3"/></g><g><path d="M104.68,265.063c-0.395-0.298-0.469-0.846-0.193-1.257c2.16-3.208,3.186-7.16,2.83-10.981 c-0.343-4.134-2.27-8.13-5.287-10.971c-3.03-2.895-7.125-4.594-11.239-4.665c-0.181-0.005-0.351-0.008-0.521-0.008 c-3.943,0-7.915,1.435-10.913,3.94c-0.113,0.161-0.338,0.451-0.855,1.049c-0.12,0.138-0.233,0.299-0.355,0.47 c-0.093,0.13-0.189,0.265-0.293,0.4c-0.223,0.292-0.48,0.643-0.705,1.041c-1.153,1.805-2.009,3.99-2.366,6.029 c-0.383,2.137-0.352,4.479,0.085,6.432c0.358,1.665,0.897,2.908,1.187,3.576l0.085,0.198c0.731,1.668,1.067,2.544,1.112,3.306 c0.062,0.827-0.251,1.51-0.932,2.02c-0.412,0.31-0.827,0.459-1.27,0.459c-0.347,0-0.705-0.096-1.064-0.286 c-0.691-0.379-1.704-1.278-2.65-3.436c-0.225-0.526-0.969-2.424-1.232-5.038c-0.276-2.56,0.045-5.503,0.884-8.069 c0.781-2.433,2.186-4.877,3.852-6.703c0.502-0.608,1.063-1.097,1.516-1.488c0.154-0.135,0.3-0.261,0.43-0.381 c0.617-0.452,1.021-0.725,1.276-0.869c3.342-2.848,7.79-4.479,12.217-4.479c0.153,0,0.307,0.002,0.461,0.006 c4.549,0.051,9.108,1.919,12.499,5.124c3.361,3.139,5.514,7.568,5.901,12.151c0.401,4.258-0.745,8.665-3.159,12.231 C105.689,265.291,105.092,265.373,104.68,265.063L104.68,265.063z" class="st3"/></g><g><path d="M25.312,181.703c0,0.279-0.114,0.556-0.339,0.755l-6.686,5.924l-6.686-5.924 c-0.417-0.37-0.455-1.006-0.086-1.423c0.369-0.417,1.006-0.455,1.423-0.086l5.349,4.74l5.349-4.74 c0.417-0.369,1.054-0.331,1.423,0.086C25.229,181.227,25.312,181.466,25.312,181.703z" class="st3"/></g><g><path d="M51.12,56.27c0,0.557-0.451,1.008-1.008,1.008h-3.98c-5.927,0-10.75,4.822-10.75,10.749v24.442 c0,0.557-0.451,1.008-1.008,1.008s-1.008-0.451-1.008-1.008V68.027c0-7.038,5.726-12.765,12.765-12.765h3.98 C50.668,55.262,51.12,55.713,51.12,56.27z" class="st3"/></g><g><path d="M72.413,45.605v9.657h-2.159v-1.61c0-0.557-0.451-1.008-1.008-1.008s-1.008,0.451-1.008,1.008v1.61h-1.442 c-0.557,0-1.008,0.451-1.008,1.008s0.451,1.008,1.008,1.008h1.442v1.61c0,0.557,0.451,1.008,1.008,1.008 s1.008-0.451,1.008-1.008v-1.61h2.159v9.657c0,0.557,0.451,1.008,1.008,1.008s1.008-0.451,1.008-1.008v-9.657h2.159v5.114 c0,0.557,0.451,1.008,1.008,1.008s1.008-0.451,1.008-1.008v-5.114h2.159v2.457c0,0.557,0.451,1.008,1.008,1.008 s1.008-0.451,1.008-1.008v-2.457h2.159v0.657c0,0.557,0.451,1.008,1.008,1.008s1.008-0.451,1.008-1.008v-0.657h1.442 c0.557,0,1.008-0.451,1.008-1.008s-0.451-1.008-1.008-1.008h-1.442v-0.657c0-0.557-0.451-1.008-1.008-1.008 s-1.008,0.451-1.008,1.008v0.657h-2.159v-2.457c0-0.557-0.451-1.008-1.008-1.008s-1.008,0.451-1.008,1.008v2.457h-2.159v-5.114 c0-0.557-0.451-1.008-1.008-1.008s-1.008,0.451-1.008,1.008v5.114h-2.159v-9.657c0-0.557-0.451-1.008-1.008-1.008 S72.413,45.048,72.413,45.605z" class="st3"/><path d="M72.413,189.225v9.657h-2.159v-1.61c0-0.557-0.451-1.008-1.008-1.008s-1.008,0.451-1.008,1.008v1.61 h-1.442c-0.557,0-1.008,0.451-1.008,1.008c0,0.557,0.451,1.008,1.008,1.008h1.442v1.61c0,0.557,0.451,1.008,1.008,1.008 s1.008-0.451,1.008-1.008v-1.61h2.159v9.657c0,0.557,0.451,1.008,1.008,1.008s1.008-0.451,1.008-1.008v-9.657h2.159v5.114 c0,0.557,0.451,1.008,1.008,1.008s1.008-0.451,1.008-1.008v-5.114h2.159v2.457c0,0.557,0.451,1.008,1.008,1.008 s1.008-0.451,1.008-1.008v-2.457h2.159v0.657c0,0.557,0.451,1.008,1.008,1.008s1.008-0.451,1.008-1.008v-0.657h1.442 c0.557,0,1.008-0.451,1.008-1.008c0-0.557-0.451-1.008-1.008-1.008h-1.442v-0.657c0-0.557-0.451-1.008-1.008-1.008 s-1.008,0.451-1.008,1.008v0.657h-2.159v-2.458c0-0.557-0.451-1.008-1.008-1.008s-1.008,0.451-1.008,1.008v2.458h-2.159v-5.114 c0-0.557-0.451-1.008-1.008-1.008s-1.008,0.451-1.008,1.008v5.114h-2.159v-9.657c0-0.557-0.451-1.008-1.008-1.008 S72.413,188.668,72.413,189.225z" class="st3"/></g><g><path d="M51.12,199.89c0,0.557-0.451,1.008-1.008,1.008h-3.98c-5.927,0-10.75,4.822-10.75,10.749v24.441 c0,0.557-0.451,1.008-1.008,1.008s-1.008-0.451-1.008-1.008v-24.442c0-7.039,5.726-12.765,12.765-12.765h3.98 C50.668,198.882,51.12,199.333,51.12,199.89z" class="st3"/></g><g><path d="M25.312,37.841c0,0.278-0.115,0.556-0.339,0.755l-6.686,5.923l-6.686-5.923 c-0.417-0.369-0.454-1.008-0.086-1.423c0.369-0.417,1.006-0.456,1.423-0.087l5.349,4.739l5.349-4.739 c0.417-0.369,1.054-0.33,1.423,0.087C25.229,37.364,25.312,37.603,25.312,37.841z" class="st3"/></g><circle cx="18.288" cy="166.069" r="13.76" class="st3"/><circle cx="18.288" cy="309.825" r="13.76" class="st3"/><g><path d="M98.495,149.87c0,0.478-0.341,0.902-0.827,0.991c-0.548,0.1-1.073-0.265-1.173-0.812l-7.199-39.6 c-0.096-0.554,0.265-1.073,0.812-1.173c0.548-0.1,1.073,0.265,1.173,0.812l7.199,39.6 C98.49,149.75,98.495,149.811,98.495,149.87z" class="st3"/></g><g><path d="M98.495,293.871c0,0.478-0.341,0.902-0.827,0.991c-0.548,0.1-1.073-0.264-1.173-0.812l-7.199-39.6 c-0.098-0.551,0.265-1.073,0.812-1.172c0.548-0.1,1.073,0.264,1.173,0.812l7.199,39.6 C98.49,293.751,98.495,293.811,98.495,293.871z" class="st3"/></g></g><g id="jnoibs_and_things_1_" class="st1"><circle cx="91.376" cy="222.17" r="10.8" class="st2"/><circle cx="201.176" cy="222.17" r="10.8" class="st2"/><circle cx="136.376" cy="205.97" r="21.6" class="st2"/><circle cx="91.376" cy="182.57" r="10.8" class="st2"/><circle cx="91.376" cy="142.97" r="10.8" class="st2"/><circle cx="184.976" cy="142.97" r="10.8" class="st2"/><circle cx="235.131" cy="222.17" r="10.8" class="st2"/><ellipse cx="344.916" cy="222.172" class="st2" rx="10.799" ry="10.799" transform="matrix(0.9998 -0.0204 0.0204 0.9998 -4.4609 7.0832)"/><circle cx="235.131" cy="182.57" r="10.8" class="st2"/><circle cx="235.131" cy="142.97" r="10.8" class="st2"/><circle cx="328.976" cy="142.97" r="10.8" class="st2"/></g></g><g id="holes"><g><path d="M14.076,137.269c0,2.322,1.89,4.212,4.212,4.212s4.212-1.89,4.212-4.212c0-2.322-1.89-4.212-4.212-4.212 S14.076,134.947,14.076,137.269z"/><ellipse cx="18.288" cy="200.269" rx="8.712" ry="8.712" transform="matrix(0.7071 -0.7071 0.7071 0.7071 -136.2554 71.5891)"/><ellipse cx="18.288" cy="166.069" rx="8.712" ry="8.712" transform="matrix(0.7071 -0.7071 0.7071 0.7071 -112.0723 61.5722)"/><ellipse cx="18.288" cy="310.069" rx="8.712" ry="8.712" transform="matrix(0.9871 -0.1602 0.1602 0.9871 -49.4314 6.9332)"/><circle cx="19.188" cy="281.27" r="4.212"/><path d="M9.576,56.269c0,4.804,3.908,8.712,8.712,8.712S27,61.073,27,56.269c0-4.803-3.908-8.712-8.712-8.712 S9.576,51.465,9.576,56.269z"/><ellipse cx="34.488" cy="101.269" rx="9.712" ry="9.712" transform="matrix(0.9732 -0.2298 0.2298 0.9732 -22.3443 10.6327)"/><ellipse cx="34.488" cy="245.269" rx="9.712" ry="9.712" transform="matrix(0.9732 -0.2298 0.2298 0.9732 -55.4286 14.4849)"/><path d="M21.388,13.182c2.322,0,4.212-1.889,4.212-4.212s-1.89-4.213-4.212-4.213c-1.172,0-2.303,0.478-3.104,1.312 c-0.758,0.789-1.151,1.814-1.108,2.889C17.176,11.292,19.066,13.182,21.388,13.182z"/><ellipse cx="57.888" cy="200.269" rx="8.712" ry="8.712" transform="matrix(0.7071 -0.7071 0.7071 0.7071 -124.6568 99.5905)"/><path d="M80.576,110.269c0,5.356,4.357,9.712,9.712,9.712s9.712-4.356,9.712-9.712c0-5.356-4.357-9.712-9.712-9.712 S80.576,104.913,80.576,110.269z"/><ellipse cx="97.488" cy="56.269" rx="8.712" ry="8.712" transform="matrix(0.9732 -0.2298 0.2298 0.9732 -10.3201 23.9033)"/><ellipse cx="90.288" cy="254.269" rx="9.712" ry="9.712" transform="matrix(0.7071 -0.7071 0.7071 0.7071 -153.3508 138.317)"/><path d="M57.888,64.981c4.804,0,8.712-3.908,8.712-8.712c-0.001-4.803-3.908-8.712-8.712-8.712 c-4.804,0-8.712,3.908-8.712,8.712C49.176,61.073,53.084,64.981,57.888,64.981z"/><path d="M21.388,352.058c-2.322,0-4.212,1.89-4.212,4.212s1.89,4.212,4.212,4.212c2.322,0,4.212-1.89,4.212-4.212 S23.71,352.058,21.388,352.058z"/><ellipse cx="97.488" cy="149.869" rx="8.712" ry="8.712" transform="matrix(0.9871 -0.1602 0.1602 0.9871 -22.7476 17.551)"/><ellipse cx="97.488" cy="200.269" rx="8.712" ry="8.712" transform="matrix(0.9732 -0.2298 0.2298 0.9732 -43.4044 27.7555)"/><ellipse cx="97.488" cy="293.869" rx="8.712" ry="8.712" transform="matrix(0.9871 -0.1602 0.1602 0.9871 -45.8138 19.4104)"/></g></g><g id="hardware"><path d="M18.287,45.254c-6.084,0-11.015,4.932-11.015,11.015c0,6.084,4.932,11.015,11.015,11.015 c6.084,0,11.015-4.932,11.015-11.015C29.302,50.186,24.37,45.254,18.287,45.254z M18.287,65.045 c-4.847,0-8.776-3.929-8.776-8.776c0-4.847,3.929-8.776,8.776-8.776c4.847,0,8.776,3.929,8.776,8.776 C27.063,61.116,23.134,65.045,18.287,65.045z" class="st4"/><path d="M97.489,138.854c-6.084,0-11.015,4.932-11.015,11.015c0,6.084,4.932,11.015,11.015,11.015 c6.084,0,11.015-4.932,11.015-11.015C108.505,143.786,103.573,138.854,97.489,138.854z M97.489,158.645 c-4.847,0-8.776-3.929-8.776-8.776c0-4.847,3.929-8.776,8.776-8.776c4.847,0,8.776,3.929,8.776,8.776 C106.265,154.716,102.336,158.645,97.489,158.645z" class="st4"/><path d="M18.287,155.054c-6.084,0-11.015,4.932-11.015,11.015c0,6.084,4.932,11.015,11.015,11.015 c6.084,0,11.015-4.932,11.015-11.015C29.302,159.986,24.37,155.054,18.287,155.054z M18.287,174.845 c-4.847,0-8.776-3.929-8.776-8.776c0-4.847,3.929-8.776,8.776-8.776c4.847,0,8.776,3.929,8.776,8.776 C27.063,170.916,23.134,174.845,18.287,174.845z" class="st4"/><path d="M57.888,45.254c-6.084,0-11.015,4.932-11.015,11.015c0,6.084,4.932,11.015,11.015,11.015 c6.084,0,11.015-4.932,11.015-11.015C68.903,50.186,63.972,45.254,57.888,45.254z M57.888,65.045 c-4.847,0-8.776-3.929-8.776-8.776c0-4.847,3.929-8.776,8.776-8.776c4.847,0,8.776,3.929,8.776,8.776 C66.664,61.116,62.735,65.045,57.888,65.045z" class="st4"/><path d="M97.489,45.254c-6.084,0-11.015,4.932-11.015,11.015c0,6.084,4.932,11.015,11.015,11.015 c6.084,0,11.015-4.932,11.015-11.015C108.505,50.186,103.573,45.254,97.489,45.254z M97.489,65.045 c-4.847,0-8.776-3.929-8.776-8.776c0-4.847,3.929-8.776,8.776-8.776c4.847,0,8.776,3.929,8.776,8.776 C106.265,61.116,102.336,65.045,97.489,65.045z" class="st4"/><path d="M18.287,189.254c-6.084,0-11.015,4.932-11.015,11.015c0,6.084,4.932,11.015,11.015,11.015 c6.084,0,11.015-4.932,11.015-11.015C29.302,194.186,24.37,189.254,18.287,189.254z M18.287,209.045 c-4.847,0-8.776-3.929-8.776-8.776c0-4.847,3.929-8.776,8.776-8.776c4.847,0,8.776,3.929,8.776,8.776 C27.063,205.116,23.134,209.045,18.287,209.045z" class="st4"/><path d="M97.489,282.854c-6.084,0-11.015,4.932-11.015,11.015c0,6.084,4.932,11.015,11.015,11.015 c6.084,0,11.015-4.932,11.015-11.015C108.505,287.786,103.573,282.854,97.489,282.854z M97.489,302.645 c-4.847,0-8.776-3.929-8.776-8.776c0-4.847,3.929-8.776,8.776-8.776c4.847,0,8.776,3.929,8.776,8.776 C106.265,298.716,102.336,302.645,97.489,302.645z" class="st4"/><path d="M18.431,299.011c-6.084,0-11.015,4.932-11.015,11.015c0,6.084,4.932,11.015,11.015,11.015 c6.084,0,11.015-4.932,11.015-11.015C29.446,303.942,24.515,299.011,18.431,299.011z M18.431,318.802 c-4.847,0-8.776-3.929-8.776-8.776c0-4.847,3.929-8.776,8.776-8.776c4.847,0,8.776,3.929,8.776,8.776 C27.207,314.873,23.278,318.802,18.431,318.802z" class="st4"/><path d="M57.888,189.254c-6.084,0-11.015,4.932-11.015,11.015c0,6.084,4.932,11.015,11.015,11.015 c6.084,0,11.015-4.932,11.015-11.015C68.903,194.186,63.972,189.254,57.888,189.254z M57.888,209.045 c-4.847,0-8.776-3.929-8.776-8.776c0-4.847,3.929-8.776,8.776-8.776c4.847,0,8.776,3.929,8.776,8.776 C66.664,205.116,62.735,209.045,57.888,209.045z" class="st4"/><path d="M97.489,189.254c-6.084,0-11.015,4.932-11.015,11.015c0,6.084,4.932,11.015,11.015,11.015 c6.084,0,11.015-4.932,11.015-11.015C108.505,194.186,103.573,189.254,97.489,189.254z M97.489,209.045 c-4.847,0-8.776-3.929-8.776-8.776c0-4.847,3.929-8.776,8.776-8.776c4.847,0,8.776,3.929,8.776,8.776 C106.265,205.116,102.336,209.045,97.489,209.045z" class="st4"/><g><polygon points="56.52 245.269 55.64 246.102 56.453 247 55.511 247.761 56.251 248.719 55.253 249.404 55.915 250.417 54.866 251.02 55.446 252.083 54.352 252.601 54.847 253.706 53.715 254.136 54.121 255.277 52.959 255.616 53.274 256.785 52.089 257.033 52.312 258.223 51.111 258.377 51.239 259.581 50.03 259.64 50.065 260.85 48.855 260.816 48.795 262.025 47.591 261.895 47.437 263.096 46.247 262.873 46 264.058 44.831 263.743 44.491 264.905 43.351 264.498 42.921 265.63 41.816 265.135 41.298 266.229 40.236 265.648 39.633 266.697 38.62 266.034 37.936 267.033 36.978 266.292 36.217 267.234 35.32 266.421 34.488 267.301 33.655 266.421 32.758 267.234 31.996 266.292 31.038 267.033 30.354 266.034 29.34 266.697 28.737 265.647 27.675 266.227 27.156 265.133 26.051 265.628 25.621 264.496 24.481 264.903 24.141 263.74 22.972 264.056 22.724 262.87 21.534 263.093 21.38 261.892 20.177 262.021 20.117 260.812 18.907 260.846 18.942 259.636 17.733 259.576 17.862 258.372 16.661 258.218 16.884 257.028 15.699 256.781 16.014 255.612 14.853 255.272 15.259 254.132 14.128 253.702 14.623 252.598 13.529 252.079 14.11 251.017 13.06 250.414 13.723 249.401 12.724 248.717 13.465 247.759 12.523 246.999 13.336 246.101 12.456 245.269 13.336 244.437 12.523 243.539 13.465 242.778 12.725 241.819 13.723 241.135 13.061 240.121 14.11 239.518 13.53 238.456 14.624 237.938 14.129 236.833 15.261 236.402 14.855 235.262 16.017 234.922 15.702 233.753 16.887 233.506 16.664 232.316 17.865 232.162 17.737 230.958 18.946 230.898 18.911 229.688 20.121 229.723 20.181 228.514 21.385 228.643 21.539 227.442 22.729 227.665 22.976 226.48 24.145 226.796 24.485 225.634 25.625 226.04 26.055 224.909 27.16 225.404 27.678 224.31 28.74 224.891 29.343 223.841 30.356 224.504 31.04 223.506 31.998 224.246 32.759 223.304 33.656 224.117 34.488 223.237 35.321 224.117 36.218 223.304 36.98 224.246 37.938 223.506 38.622 224.505 39.636 223.842 40.239 224.892 41.301 224.311 41.82 225.405 42.925 224.911 43.355 226.042 44.495 225.636 44.835 226.798 46.004 226.483 46.252 227.668 47.442 227.446 47.596 228.647 48.799 228.518 48.859 229.727 50.069 229.692 50.034 230.903 51.243 230.962 51.114 232.166 52.315 232.32 52.092 233.51 53.277 233.758 52.962 234.926 54.123 235.266 53.717 236.406 54.848 236.836 54.353 237.941 55.447 238.459 54.866 239.522 55.916 240.125 55.253 241.138 56.252 241.821 55.511 242.779 56.453 243.54 55.64 244.437" class="st4"/></g><g><polygon points="56.52 101.269 55.64 102.102 56.453 103 55.511 103.761 56.251 104.719 55.253 105.404 55.915 106.417 54.866 107.02 55.446 108.083 54.352 108.601 54.847 109.706 53.715 110.136 54.121 111.277 52.959 111.616 53.274 112.785 52.089 113.033 52.312 114.223 51.111 114.377 51.239 115.581 50.03 115.64 50.065 116.85 48.855 116.816 48.795 118.025 47.591 117.895 47.437 119.096 46.247 118.873 46 120.058 44.831 119.743 44.491 120.905 43.351 120.498 42.921 121.63 41.816 121.135 41.298 122.229 40.236 121.648 39.633 122.697 38.62 122.034 37.936 123.033 36.978 122.292 36.217 123.234 35.32 122.421 34.488 123.301 33.655 122.421 32.758 123.234 31.996 122.292 31.038 123.033 30.354 122.034 29.34 122.697 28.737 121.647 27.675 122.227 27.156 121.133 26.051 121.628 25.621 120.496 24.481 120.903 24.141 119.741 22.972 120.056 22.724 118.87 21.534 119.093 21.38 117.892 20.177 118.021 20.117 116.812 18.907 116.846 18.942 115.636 17.733 115.576 17.862 114.373 16.661 114.218 16.884 113.028 15.699 112.781 16.014 111.612 14.853 111.272 15.259 110.132 14.128 109.702 14.623 108.598 13.529 108.079 14.11 107.017 13.06 106.414 13.723 105.401 12.724 104.717 13.465 103.759 12.523 102.999 13.336 102.101 12.456 101.269 13.336 100.437 12.523 99.539 13.465 98.778 12.725 97.819 13.723 97.135 13.061 96.122 14.11 95.518 13.53 94.456 14.624 93.938 14.129 92.833 15.261 92.402 14.855 91.262 16.017 90.922 15.702 89.753 16.887 89.506 16.664 88.316 17.865 88.162 17.737 86.958 18.946 86.898 18.911 85.688 20.121 85.723 20.181 84.514 21.385 84.643 21.539 83.442 22.729 83.665 22.976 82.48 24.145 82.796 24.485 81.634 25.625 82.04 26.055 80.909 27.16 81.404 27.678 80.31 28.74 80.891 29.343 79.841 30.356 80.504 31.04 79.506 31.998 80.246 32.759 79.304 33.656 80.117 34.488 79.237 35.321 80.117 36.218 79.304 36.98 80.246 37.938 79.506 38.622 80.505 39.636 79.842 40.239 80.892 41.301 80.311 41.82 81.405 42.925 80.911 43.355 82.042 44.495 81.636 44.835 82.798 46.004 82.483 46.252 83.668 47.442 83.446 47.596 84.647 48.799 84.518 48.859 85.727 50.069 85.692 50.034 86.903 51.243 86.962 51.114 88.166 52.315 88.32 52.092 89.51 53.277 89.758 52.962 90.926 54.123 91.266 53.717 92.407 54.848 92.836 54.353 93.941 55.447 94.459 54.866 95.522 55.916 96.125 55.253 97.138 56.252 97.821 55.511 98.779 56.453 99.54 55.64 100.437" class="st4"/></g><line x1="34.488" x2="34.488" y1="88.669" y2="81.297" class="st5"/><line x1="34.488" x2="34.488" y1="232.842" y2="225.469" class="st5"/><line x1="90.288" x2="90.288" y1="253.73" y2="246.357" class="st5"/><line x1="90.288" x2="90.288" y1="109.73" y2="102.357" class="st5"/></g></g></switch></svg>